<svg xmlns="http://www.w3.org/2000/svg" width="500" height="78" viewBox="0 0 500 78" fill="none"><path d="M409.184 29.1589C407.741 29.1589 406.448 28.9138 405.304 28.4238C404.188 27.9337 403.29 27.2122 402.609 26.2593C401.956 25.3064 401.629 24.1493 401.629 22.788C401.629 21.3995 401.956 20.256 402.609 19.3575C403.29 18.4319 404.202 17.7376 405.345 17.2748C406.516 16.8119 407.836 16.5805 409.307 16.5805H415.432V15.2737C415.432 14.1029 415.078 13.1637 414.371 12.4558C413.663 11.7479 412.574 11.394 411.104 11.394C409.661 11.394 408.558 11.7343 407.796 12.4149C407.033 13.0956 406.53 13.9804 406.285 15.0695L402.364 13.8035C402.691 12.7144 403.208 11.7343 403.916 10.8631C404.651 9.96461 405.617 9.24313 406.815 8.69861C408.013 8.15409 409.456 7.88184 411.144 7.88184C413.758 7.88184 415.814 8.54887 417.311 9.88294C418.808 11.217 419.557 13.1092 419.557 15.5595V23.8498C419.557 24.6666 419.938 25.075 420.701 25.075H422.416V28.5871H419.271C418.318 28.5871 417.542 28.3421 416.943 27.852C416.344 27.3619 416.045 26.6949 416.045 25.8509V25.7284H415.432C415.215 26.1368 414.888 26.6132 414.452 27.1577C414.017 27.7023 413.377 28.1787 412.533 28.5871C411.689 28.9683 410.573 29.1589 409.184 29.1589ZM409.797 25.6876C411.485 25.6876 412.846 25.2111 413.881 24.2582C414.915 23.2781 415.432 21.944 415.432 20.256V19.8476H409.552C408.435 19.8476 407.537 20.0926 406.856 20.5827C406.176 21.0455 405.835 21.7398 405.835 22.6655C405.835 23.5912 406.189 24.3263 406.897 24.8708C407.605 25.4153 408.572 25.6876 409.797 25.6876Z" fill="white"></path><path d="M387.703 28.5873V8.45375H391.828V10.8224H392.481C392.808 9.9784 393.325 9.36581 394.033 8.98465C394.768 8.57626 395.667 8.37207 396.728 8.37207H399.138V12.1701H396.565C395.204 12.1701 394.088 12.5512 393.216 13.3136C392.345 14.0487 391.91 15.1922 391.91 16.744V28.5873H387.703Z" fill="white"></path><path d="M370.379 29.1589C368.936 29.1589 367.643 28.9138 366.5 28.4238C365.383 27.9337 364.485 27.2122 363.804 26.2593C363.151 25.3064 362.824 24.1493 362.824 22.788C362.824 21.3995 363.151 20.256 363.804 19.3575C364.485 18.4319 365.397 17.7376 366.541 17.2748C367.711 16.8119 369.032 16.5805 370.502 16.5805H376.628V15.2737C376.628 14.1029 376.274 13.1637 375.566 12.4558C374.858 11.7479 373.769 11.394 372.299 11.394C370.856 11.394 369.753 11.7343 368.991 12.4149C368.229 13.0956 367.725 13.9804 367.48 15.0695L363.559 13.8035C363.886 12.7144 364.403 11.7343 365.111 10.8631C365.846 9.96461 366.813 9.24313 368.011 8.69861C369.209 8.15409 370.652 7.88184 372.34 7.88184C374.953 7.88184 377.009 8.54887 378.506 9.88294C380.004 11.217 380.752 13.1092 380.752 15.5595V23.8498C380.752 24.6666 381.134 25.075 381.896 25.075H383.611V28.5871H380.467C379.514 28.5871 378.738 28.3421 378.139 27.852C377.54 27.3619 377.24 26.6949 377.24 25.8509V25.7284H376.628C376.41 26.1368 376.083 26.6132 375.648 27.1577C375.212 27.7023 374.572 28.1787 373.728 28.5871C372.884 28.9683 371.768 29.1589 370.379 29.1589ZM370.992 25.6876C372.68 25.6876 374.041 25.2111 375.076 24.2582C376.11 23.2781 376.628 21.944 376.628 20.256V19.8476H370.747C369.631 19.8476 368.732 20.0926 368.052 20.5827C367.371 21.0455 367.031 21.7398 367.031 22.6655C367.031 23.5912 367.385 24.3263 368.092 24.8708C368.8 25.4153 369.767 25.6876 370.992 25.6876Z" fill="white"></path><path d="M337.969 36.7549V8.45358H342.093V11.3531H342.747C343.264 10.4547 344.04 9.65152 345.075 8.94364C346.137 8.23577 347.648 7.88184 349.608 7.88184C351.296 7.88184 352.834 8.29022 354.223 9.107C355.638 9.92378 356.768 11.1081 357.612 12.66C358.483 14.1846 358.919 16.036 358.919 18.2141V18.8266C358.919 21.0047 358.497 22.8697 357.653 24.4216C356.809 25.9462 355.679 27.1169 354.263 27.9337C352.848 28.7505 351.296 29.1589 349.608 29.1589C348.301 29.1589 347.198 28.9955 346.3 28.6688C345.401 28.3421 344.68 27.9337 344.135 27.4436C343.591 26.9263 343.155 26.3954 342.829 25.8509H342.175V36.7549H337.969ZM348.383 25.4834C350.234 25.4834 351.745 24.898 352.916 23.7273C354.086 22.5566 354.672 20.8822 354.672 18.7041V18.3366C354.672 16.1857 354.073 14.5249 352.875 13.3542C351.704 12.1835 350.207 11.5982 348.383 11.5982C346.586 11.5982 345.088 12.1835 343.89 13.3542C342.72 14.5249 342.134 16.1857 342.134 18.3366V18.7041C342.134 20.8822 342.72 22.5566 343.89 23.7273C345.088 24.898 346.586 25.4834 348.383 25.4834Z" fill="white"></path><path d="M310.239 29.1589C308.796 29.1589 307.503 28.9138 306.359 28.4238C305.243 27.9337 304.344 27.2122 303.664 26.2593C303.01 25.3064 302.684 24.1493 302.684 22.788C302.684 21.3995 303.01 20.256 303.664 19.3575C304.344 18.4319 305.256 17.7376 306.4 17.2748C307.571 16.8119 308.891 16.5805 310.361 16.5805H316.487V15.2737C316.487 14.1029 316.133 13.1637 315.425 12.4558C314.717 11.7479 313.628 11.394 312.158 11.394C310.715 11.394 309.613 11.7343 308.85 12.4149C308.088 13.0956 307.584 13.9804 307.339 15.0695L303.419 13.8035C303.745 12.7144 304.263 11.7343 304.971 10.8631C305.706 9.96461 306.672 9.24313 307.87 8.69861C309.068 8.15409 310.511 7.88184 312.199 7.88184C314.813 7.88184 316.868 8.54887 318.366 9.88294C319.863 11.217 320.612 13.1092 320.612 15.5595V23.8498C320.612 24.6666 320.993 25.075 321.755 25.075H323.471V28.5871H320.326C319.373 28.5871 318.597 28.3421 317.998 27.852C317.399 27.3619 317.1 26.6949 317.1 25.8509V25.7284H316.487C316.269 26.1368 315.943 26.6132 315.507 27.1577C315.071 27.7023 314.432 28.1787 313.588 28.5871C312.744 28.9683 311.627 29.1589 310.239 29.1589ZM310.851 25.6876C312.539 25.6876 313.901 25.2111 314.935 24.2582C315.97 23.2781 316.487 21.944 316.487 20.256V19.8476H310.606C309.49 19.8476 308.592 20.0926 307.911 20.5827C307.23 21.0455 306.89 21.7398 306.89 22.6655C306.89 23.5912 307.244 24.3263 307.952 24.8708C308.66 25.4153 309.626 25.6876 310.851 25.6876Z" fill="white"></path><path d="M293.542 28.5872V8.45363H297.748V28.5872H293.542ZM295.665 5.71743C294.848 5.71743 294.154 5.45879 293.582 4.9415C293.038 4.39698 292.766 3.70272 292.766 2.85872C292.766 2.01471 293.038 1.33407 293.582 0.816778C294.154 0.272259 294.848 0 295.665 0C296.509 0 297.203 0.272259 297.748 0.816778C298.292 1.33407 298.565 2.01471 298.565 2.85872C298.565 3.70272 298.292 4.39698 297.748 4.9415C297.203 5.45879 296.509 5.71743 295.665 5.71743Z" fill="white"></path><path d="M267.379 36.7549V8.45358H271.504V11.3531H272.157C272.674 10.4547 273.45 9.65152 274.485 8.94364C275.547 8.23577 277.058 7.88184 279.018 7.88184C280.706 7.88184 282.244 8.29022 283.633 9.107C285.049 9.92378 286.178 11.1081 287.022 12.66C287.894 14.1846 288.329 16.036 288.329 18.2141V18.8266C288.329 21.0047 287.907 22.8697 287.063 24.4216C286.219 25.9462 285.089 27.1169 283.674 27.9337C282.258 28.7505 280.706 29.1589 279.018 29.1589C277.711 29.1589 276.608 28.9955 275.71 28.6688C274.812 28.3421 274.09 27.9337 273.546 27.4436C273.001 26.9263 272.565 26.3954 272.239 25.8509H271.585V36.7549H267.379ZM277.793 25.4834C279.644 25.4834 281.155 24.898 282.326 23.7273C283.497 22.5566 284.082 20.8822 284.082 18.7041V18.3366C284.082 16.1857 283.483 14.5249 282.285 13.3542C281.114 12.1835 279.617 11.5982 277.793 11.5982C275.996 11.5982 274.498 12.1835 273.301 13.3542C272.13 14.5249 271.544 16.1857 271.544 18.3366V18.7041C271.544 20.8822 272.13 22.5566 273.301 23.7273C274.498 24.898 275.996 25.4834 277.793 25.4834Z" fill="white"></path><path d="M250.057 29.1589C248.614 29.1589 247.321 28.9138 246.177 28.4238C245.061 27.9337 244.163 27.2122 243.482 26.2593C242.829 25.3064 242.502 24.1493 242.502 22.788C242.502 21.3995 242.829 20.256 243.482 19.3575C244.163 18.4319 245.075 17.7376 246.218 17.2748C247.389 16.8119 248.709 16.5805 250.18 16.5805H256.305V15.2737C256.305 14.1029 255.952 13.1637 255.244 12.4558C254.536 11.7479 253.447 11.394 251.977 11.394C250.534 11.394 249.431 11.7343 248.669 12.4149C247.906 13.0956 247.403 13.9804 247.158 15.0695L243.237 13.8035C243.564 12.7144 244.081 11.7343 244.789 10.8631C245.524 9.96461 246.491 9.24313 247.688 8.69861C248.886 8.15409 250.329 7.88184 252.017 7.88184C254.631 7.88184 256.687 8.54887 258.184 9.88294C259.681 11.217 260.43 13.1092 260.43 15.5595V23.8498C260.43 24.6666 260.811 25.075 261.574 25.075H263.289V28.5871H260.144C259.191 28.5871 258.415 28.3421 257.817 27.852C257.218 27.3619 256.918 26.6949 256.918 25.8509V25.7284H256.305C256.088 26.1368 255.761 26.6132 255.325 27.1577C254.89 27.7023 254.25 28.1787 253.406 28.5871C252.562 28.9683 251.446 29.1589 250.057 29.1589ZM250.67 25.6876C252.358 25.6876 253.719 25.2111 254.754 24.2582C255.788 23.2781 256.305 21.944 256.305 20.256V19.8476H250.425C249.308 19.8476 248.41 20.0926 247.729 20.5827C247.049 21.0455 246.708 21.7398 246.708 22.6655C246.708 23.5912 247.062 24.3263 247.77 24.8708C248.478 25.4153 249.445 25.6876 250.67 25.6876Z" fill="white"></path><path d="M228.574 28.5873V8.45375H232.699V10.8224H233.352C233.679 9.9784 234.196 9.36581 234.904 8.98465C235.639 8.57626 236.538 8.37207 237.6 8.37207H240.009V12.1701H237.436C236.075 12.1701 234.959 12.5512 234.087 13.3136C233.216 14.0487 232.781 15.1922 232.781 16.744V28.5873H228.574Z" fill="white"></path><path d="M213.956 29.1589C211.914 29.1589 210.131 28.7369 208.606 27.8928C207.081 27.0216 205.883 25.8101 205.012 24.2582C204.168 22.6791 203.746 20.855 203.746 18.7858V18.2957C203.746 16.1993 204.168 14.3752 205.012 12.8233C205.856 11.2442 207.027 10.0327 208.524 9.18868C210.049 8.31745 211.805 7.88184 213.792 7.88184C215.725 7.88184 217.413 8.31745 218.856 9.18868C220.327 10.0327 221.47 11.217 222.287 12.7417C223.104 14.2663 223.512 16.0496 223.512 18.0915V19.6842H208.034C208.089 21.4539 208.674 22.8697 209.79 23.9315C210.934 24.9661 212.349 25.4834 214.037 25.4834C215.617 25.4834 216.801 25.1294 217.59 24.4216C218.407 23.7137 219.033 22.8969 219.469 21.9712L222.94 23.7681C222.559 24.5305 222.001 25.3336 221.266 26.1776C220.558 27.0216 219.619 27.7295 218.448 28.3012C217.277 28.873 215.78 29.1589 213.956 29.1589ZM208.075 16.458H219.224C219.115 14.9333 218.571 13.749 217.59 12.905C216.61 12.0338 215.331 11.5982 213.752 11.5982C212.173 11.5982 210.879 12.0338 209.872 12.905C208.892 13.749 208.293 14.9333 208.075 16.458Z" fill="white"></path><path d="M194.295 28.5871C193.069 28.5871 192.089 28.2196 191.354 27.4845C190.646 26.7494 190.292 25.7693 190.292 24.5441V12.0066H184.738V8.4536H190.292V1.79688H194.499V8.4536H200.502V12.0066H194.499V23.809C194.499 24.6258 194.88 25.0342 195.642 25.0342H199.849V28.5871H194.295Z" fill="white"></path><path d="M170.945 28.5873V8.45375H175.07V10.8224H175.723C176.05 9.9784 176.567 9.36581 177.275 8.98465C178.01 8.57626 178.909 8.37207 179.971 8.37207H182.38V12.1701H179.807C178.446 12.1701 177.33 12.5512 176.459 13.3136C175.587 14.0487 175.152 15.1922 175.152 16.744V28.5873H170.945Z" fill="white"></path><path d="M156.327 29.1589C154.285 29.1589 152.502 28.7369 150.977 27.8928C149.452 27.0216 148.254 25.8101 147.383 24.2582C146.539 22.6791 146.117 20.855 146.117 18.7858V18.2957C146.117 16.1993 146.539 14.3752 147.383 12.8233C148.227 11.2442 149.398 10.0327 150.895 9.18868C152.42 8.31745 154.176 7.88184 156.164 7.88184C158.097 7.88184 159.785 8.31745 161.228 9.18868C162.698 10.0327 163.841 11.217 164.658 12.7417C165.475 14.2663 165.883 16.0496 165.883 18.0915V19.6842H150.405C150.46 21.4539 151.045 22.8697 152.161 23.9315C153.305 24.9661 154.721 25.4834 156.409 25.4834C157.988 25.4834 159.172 25.1294 159.962 24.4216C160.778 23.7137 161.405 22.8969 161.84 21.9712L165.311 23.7681C164.93 24.5305 164.372 25.3336 163.637 26.1776C162.929 27.0216 161.99 27.7295 160.819 28.3012C159.648 28.873 158.151 29.1589 156.327 29.1589ZM150.446 16.458H161.595C161.486 14.9333 160.942 13.749 159.962 12.905C158.981 12.0338 157.702 11.5982 156.123 11.5982C154.544 11.5982 153.25 12.0338 152.243 12.905C151.263 13.749 150.664 14.9333 150.446 16.458Z" fill="white"></path><path d="M133.889 29.1589C131.329 29.1589 129.206 28.5871 127.518 27.4436C125.83 26.3001 124.795 24.5713 124.414 22.2571L128.335 21.3178C128.552 22.4341 128.92 23.3189 129.437 23.9723C129.955 24.6257 130.594 25.0886 131.357 25.3608C132.146 25.6331 132.99 25.7692 133.889 25.7692C135.223 25.7692 136.244 25.5106 136.952 24.9933C137.687 24.476 138.054 23.809 138.054 22.9922C138.054 22.1754 137.714 21.5764 137.033 21.1953C136.353 20.8141 135.345 20.501 134.011 20.256L132.623 20.011C131.261 19.7659 130.023 19.412 128.906 18.9492C127.79 18.4863 126.905 17.8465 126.252 17.0297C125.598 16.2129 125.272 15.1648 125.272 13.8851C125.272 11.9793 125.98 10.5091 127.395 9.47455C128.811 8.41274 130.69 7.88184 133.031 7.88184C135.291 7.88184 137.142 8.39913 138.585 9.43371C140.055 10.4411 141.008 11.816 141.444 13.5584L137.523 14.6611C137.278 13.4359 136.761 12.5783 135.971 12.0882C135.182 11.5709 134.202 11.3123 133.031 11.3123C131.888 11.3123 130.989 11.5301 130.336 11.9657C129.682 12.3741 129.356 12.9595 129.356 13.7218C129.356 14.5386 129.669 15.1375 130.295 15.5187C130.948 15.8999 131.819 16.1857 132.909 16.3763L134.338 16.6213C135.781 16.8664 137.101 17.2067 138.299 17.6423C139.497 18.0779 140.436 18.7041 141.117 19.5209C141.825 20.3377 142.179 21.4267 142.179 22.788C142.179 24.8027 141.43 26.3682 139.933 27.4845C138.435 28.6007 136.421 29.1589 133.889 29.1589Z" fill="white"></path><path d="M108.477 29.1589C107.034 29.1589 105.741 28.9138 104.597 28.4238C103.481 27.9337 102.583 27.2122 101.902 26.2593C101.249 25.3064 100.922 24.1493 100.922 22.788C100.922 21.3995 101.249 20.256 101.902 19.3575C102.583 18.4319 103.495 17.7376 104.638 17.2748C105.809 16.8119 107.129 16.5805 108.6 16.5805H114.725V15.2737C114.725 14.1029 114.371 13.1637 113.664 12.4558C112.956 11.7479 111.867 11.394 110.396 11.394C108.954 11.394 107.851 11.7343 107.089 12.4149C106.326 13.0956 105.823 13.9804 105.577 15.0695L101.657 13.8035C101.984 12.7144 102.501 11.7343 103.209 10.8631C103.944 9.96461 104.91 9.24313 106.108 8.69861C107.306 8.15409 108.749 7.88184 110.437 7.88184C113.051 7.88184 115.107 8.54887 116.604 9.88294C118.101 11.217 118.85 13.1092 118.85 15.5595V23.8498C118.85 24.6666 119.231 25.075 119.994 25.075H121.709V28.5871H118.564C117.611 28.5871 116.835 28.3421 116.236 27.852C115.637 27.3619 115.338 26.6949 115.338 25.8509V25.7284H114.725C114.508 26.1368 114.181 26.6132 113.745 27.1577C113.31 27.7023 112.67 28.1787 111.826 28.5871C110.982 28.9683 109.866 29.1589 108.477 29.1589ZM109.09 25.6876C110.778 25.6876 112.139 25.2111 113.174 24.2582C114.208 23.2781 114.725 21.944 114.725 20.256V19.8476H108.845C107.728 19.8476 106.83 20.0926 106.149 20.5827C105.469 21.0455 105.128 21.7398 105.128 22.6655C105.128 23.5912 105.482 24.3263 106.19 24.8708C106.898 25.4153 107.864 25.6876 109.09 25.6876Z" fill="white"></path><path d="M79.8926 28.5872V0H84.3032V24.585H98.0658V28.5872H79.8926Z" fill="white"></path><path d="M499.764 63.0234C499.797 62.9907 499.846 63.0071 499.911 63.0724C500.009 63.1378 500.025 63.2194 499.96 63.3175C498.686 64.8857 497.15 66.0782 495.353 66.8949C493.556 67.7117 491.678 68.1201 489.718 68.1201C487.659 68.1201 485.748 67.6464 483.984 66.6989C482.22 65.7515 480.815 64.4119 479.769 62.6804C478.756 60.9161 478.25 58.8905 478.25 56.6036C478.25 54.3493 478.805 52.2746 479.916 50.3797C481.06 48.4848 482.595 46.9983 484.523 45.9201C486.45 44.8093 488.558 44.2539 490.845 44.2539C493.393 44.2539 495.517 44.9563 497.216 46.3612C498.914 47.7334 499.764 49.612 499.764 51.9969C499.764 53.0751 499.568 54.2349 499.176 55.4764C495.745 55.5418 490.485 55.6888 483.396 55.9175C483.951 57.7144 484.801 59.3316 485.944 60.7691C487.12 62.174 488.46 63.2848 489.963 64.1016C491.465 64.8857 492.936 65.2777 494.373 65.2777C496.758 65.2777 498.555 64.5263 499.764 63.0234ZM488.443 45.185C486.614 45.185 485.209 45.7568 484.229 46.9003C483.281 48.0111 482.808 49.6936 482.808 51.9479C482.808 53.0588 482.971 54.2676 483.298 55.5744C485.16 55.5418 487.349 55.4601 489.865 55.3294C490.518 55.2967 491.188 55.264 491.874 55.2314C492.593 55.1987 493.311 55.1824 494.03 55.1824C494.324 54.6923 494.471 54.0879 494.471 53.3691C494.471 52.291 494.161 51.1148 493.54 49.8407C492.952 48.5338 492.184 47.4393 491.237 46.5572C490.322 45.6424 489.391 45.185 488.443 45.185Z" fill="white"></path><path d="M477.375 59.0042C477.375 58.8409 477.424 58.7592 477.522 58.7592C477.653 58.7592 477.718 58.8409 477.718 59.0042C477.718 61.4872 477.179 63.6108 476.101 65.3751C475.056 67.1393 473.683 68.0214 471.985 68.0214C470.71 68.0214 469.632 67.5804 468.75 66.6982C467.901 65.7835 467.46 64.4276 467.427 62.6307L467.378 62.4837C467.313 62.3857 467.231 62.353 467.133 62.3857C467.068 62.3857 467.002 62.451 466.937 62.5817C465.042 66.3062 462.379 68.1684 458.949 68.1684C457.25 68.1684 455.665 67.711 454.195 66.7963C452.758 65.8488 451.598 64.5256 450.716 62.8267C449.834 61.0952 449.393 59.1022 449.393 56.8479C449.393 54.5609 449.932 52.4537 451.01 50.5261C452.088 48.5985 453.493 47.0793 455.224 45.9685C456.989 44.825 458.818 44.2532 460.713 44.2532C463.359 44.2532 465.581 45.1354 467.378 46.8996L467.329 40.4307C467.329 39.1892 467.231 38.2744 467.035 37.6864C466.872 37.0656 466.643 36.6899 466.349 36.5592C466.055 36.4285 465.663 36.3959 465.173 36.4612H465.075C464.846 36.4612 464.748 36.3632 464.781 36.1672C468.472 35.2197 471.315 33.8638 473.308 32.0996H473.406C473.602 32.0996 473.684 32.2303 473.651 32.4917C473.422 33.8638 473.259 35.285 473.161 36.7552C473.095 38.2254 473.063 40.104 473.063 42.391V61.3565C473.063 63.5128 473.618 64.591 474.729 64.591C475.807 64.591 476.51 64.1009 476.836 63.1208C477.163 62.1406 477.343 60.7684 477.375 59.0042ZM462.624 65.032C464.16 65.032 465.32 64.4929 466.104 63.4148C466.888 62.304 467.329 60.6378 467.427 58.4161L467.378 55.4757C467.247 52.568 466.594 50.1177 465.418 48.1248C464.242 46.1318 462.543 45.1354 460.321 45.1354C456.27 45.1354 454.244 47.4223 454.244 51.9963C454.244 54.1199 454.636 56.1945 455.42 58.2201C456.237 60.2457 457.299 61.8956 458.606 63.1698C459.913 64.4113 461.252 65.032 462.624 65.032Z" fill="white"></path><path d="M448.571 59.0042C448.571 58.8408 448.62 58.7591 448.718 58.7591C448.816 58.7591 448.865 58.8408 448.865 59.0042C448.865 61.4872 448.326 63.6108 447.248 65.375C446.203 67.1393 444.831 68.0214 443.132 68.0214C441.825 68.0214 440.73 67.564 439.848 66.6492C438.999 65.7344 438.574 64.3459 438.574 62.4836V61.7975C438.149 63.6598 437.251 65.1953 435.879 66.4042C434.506 67.5803 432.742 68.1684 430.586 68.1684C428.168 68.1684 426.224 67.3516 424.754 65.7181C423.317 64.0845 422.598 61.6995 422.598 58.5631V51.3101C422.598 50.0686 422.435 49.1702 422.108 48.6148C421.814 48.0267 421.242 47.7327 420.393 47.7327C420.229 47.7327 419.952 47.7653 419.559 47.8307C419.429 47.8633 419.347 47.8307 419.314 47.7327C419.314 47.602 419.363 47.5203 419.461 47.4876C421.03 47.1283 422.614 46.6545 424.215 46.0664C425.849 45.4784 427.155 44.8413 428.136 44.1552C428.234 44.0898 428.348 44.0572 428.479 44.0572C428.642 44.0572 428.724 44.1552 428.724 44.3512C428.528 46.1808 428.397 47.602 428.332 48.6148C428.266 49.6276 428.234 50.8037 428.234 52.1433V58.8081C428.234 63.7415 429.851 66.2081 433.085 66.2081C434.752 66.2081 436.075 65.5057 437.055 64.1009C438.068 62.696 438.574 60.8338 438.574 58.5141V51.3101C438.574 50.0686 438.427 49.1702 438.133 48.6148C437.839 48.0267 437.267 47.7327 436.418 47.7327C436.254 47.7327 435.977 47.7653 435.585 47.8307C435.454 47.8633 435.372 47.8307 435.34 47.7327C435.34 47.602 435.372 47.5203 435.438 47.4876C437.006 47.1283 438.59 46.6545 440.191 46.0664C441.825 45.4784 443.148 44.8413 444.161 44.1552C444.324 44.0572 444.455 44.0245 444.553 44.0572C444.684 44.0898 444.733 44.1879 444.7 44.3512C444.536 45.9194 444.406 47.3079 444.308 48.5168C444.242 49.6929 444.21 50.9018 444.21 52.1433V61.3565C444.21 63.5128 444.765 64.5909 445.876 64.5909C446.954 64.5909 447.657 64.1172 447.983 63.1697C448.31 62.1896 448.506 60.8011 448.571 59.0042ZM432.497 42.3909C432.334 42.3909 432.236 42.3419 432.203 42.2439C432.171 42.1459 432.22 42.0479 432.35 41.9499C433.69 40.9698 434.654 40.0223 435.242 39.1075C435.83 38.1927 436.303 37.1963 436.663 36.1181C436.891 35.4974 437.071 35.0726 437.202 34.8439C437.365 34.5826 437.627 34.4356 437.986 34.4029C438.607 34.3049 439.325 34.2559 440.142 34.2559C440.665 34.2559 441.09 34.3049 441.416 34.4029C441.776 34.4682 441.955 34.5662 441.955 34.6969C441.955 35.2197 441.286 36.0854 439.946 37.2943C438.639 38.4704 437.202 39.5976 435.634 40.6757C434.065 41.7539 433.02 42.3256 432.497 42.3909Z" fill="white"></path><path d="M420.155 59.0539C420.155 58.8579 420.22 58.7598 420.351 58.7598C420.481 58.7272 420.547 58.8252 420.547 59.0539C420.547 60.9488 420.269 62.5824 419.714 63.9545C419.158 65.3267 418.423 66.3722 417.508 67.091C416.626 67.7771 415.679 68.1201 414.666 68.1201C412.542 68.1201 411.105 66.3885 410.353 62.9254L410.01 61.4552C409.39 63.5462 408.328 65.1797 406.825 66.3559C405.355 67.532 403.721 68.1201 401.924 68.1201C400.127 68.1201 398.608 67.7607 397.367 67.042C396.158 66.3232 395.243 65.3757 394.622 64.1996C394.034 63.0234 393.74 61.7656 393.74 60.4261C393.74 58.7272 394.573 57.3713 396.24 56.3585C397.906 55.3131 400.029 54.7903 402.61 54.7903C404.995 54.7903 407.005 54.9537 408.638 55.2804L407.56 50.5267C407.201 48.8932 406.58 47.7007 405.698 46.9493C404.848 46.1652 403.607 45.7731 401.973 45.7731C399.948 45.7731 398.216 46.3449 396.779 47.4883C395.374 48.6318 394.59 50.4124 394.426 52.8301C394.394 53.0588 394.296 53.1731 394.132 53.1731C394.002 53.1731 393.953 53.0588 393.985 52.8301C394.149 50.9351 394.769 49.3506 395.848 48.0764C396.926 46.7696 398.232 45.8058 399.768 45.185C401.336 44.5643 402.921 44.2539 404.522 44.2539C407.299 44.2539 409.357 44.793 410.697 45.8711C412.069 46.9166 413.032 48.6482 413.588 51.0658L415.989 62.0433C416.218 62.9254 416.463 63.5952 416.724 64.0526C417.018 64.4773 417.394 64.6896 417.851 64.6896C418.44 64.6896 418.979 64.1832 419.469 63.1704C419.959 62.125 420.187 60.7528 420.155 59.0539ZM409.471 60.5241C409.537 60.2954 409.569 59.9033 409.569 59.3479L408.834 56.1135C407.266 55.7214 405.731 55.5254 404.228 55.5254C402.333 55.5254 400.977 55.8195 400.16 56.4075C399.376 56.9956 398.984 58.0574 398.984 59.593C398.984 61.1938 399.441 62.5497 400.356 63.6605C401.304 64.7713 402.643 65.3267 404.375 65.3267C407.446 65.3267 409.145 63.7258 409.471 60.5241Z" fill="white"></path><path d="M373.053 58.2208C373.085 58.0901 373.151 58.0411 373.249 58.0738C373.347 58.0738 373.412 58.1391 373.445 58.2698C373.477 61.1122 374.163 63.3501 375.503 64.9837C376.875 66.6172 378.721 67.434 381.041 67.434C383.981 67.434 385.451 66.4212 385.451 64.3956C385.419 63.0888 384.847 61.9289 383.736 60.9161C382.625 59.8707 380.943 58.7108 378.688 57.4367C376.565 56.1625 374.964 55.019 373.886 54.0062C372.84 52.9934 372.317 51.8173 372.317 50.4777C372.317 49.3669 372.726 48.3378 373.543 47.3903C374.392 46.4102 375.552 45.6424 377.022 45.087C378.492 44.5316 380.126 44.2539 381.923 44.2539C384.046 44.2539 386.039 44.5643 387.902 45.185C389.764 45.7731 390.564 46.5899 390.303 47.6354L388.784 53.5161C388.751 53.6142 388.686 53.6632 388.588 53.6632C388.522 53.6632 388.49 53.5978 388.49 53.4671C388.261 47.8477 385.745 45.038 380.943 45.038C379.505 45.038 378.509 45.2667 377.953 45.7241C377.43 46.1488 377.169 46.7369 377.169 47.4883C377.169 48.4031 377.659 49.2689 378.639 50.0857C379.619 50.8698 381.335 51.9643 383.785 53.3691C385.941 54.578 387.656 55.8031 388.931 57.0446C390.205 58.2861 390.842 59.74 390.842 61.4062C390.842 62.6804 390.401 63.8402 389.519 64.8857C388.637 65.8985 387.395 66.6989 385.794 67.287C384.193 67.8751 382.38 68.1691 380.355 68.1691C378.819 68.1691 377.349 67.9894 375.944 67.63C374.539 67.3033 373.445 66.8459 372.66 66.2579C371.876 65.6371 371.55 64.9674 371.68 64.2486L373.053 58.2208Z" fill="white"></path><path d="M359.422 59.0539C359.422 58.8579 359.488 58.7598 359.618 58.7598C359.749 58.7272 359.814 58.8252 359.814 59.0539C359.814 60.9488 359.537 62.5824 358.981 63.9545C358.426 65.3267 357.691 66.3722 356.776 67.091C355.894 67.7771 354.946 68.1201 353.934 68.1201C351.81 68.1201 350.372 66.3885 349.621 62.9254L349.278 61.4552C348.657 63.5462 347.595 65.1797 346.093 66.3559C344.622 67.532 342.989 68.1201 341.192 68.1201C339.395 68.1201 337.876 67.7607 336.634 67.042C335.425 66.3232 334.511 65.3757 333.89 64.1996C333.302 63.0234 333.008 61.7656 333.008 60.4261C333.008 58.7272 333.841 57.3713 335.507 56.3585C337.173 55.3131 339.297 54.7903 341.878 54.7903C344.263 54.7903 346.272 54.9537 347.906 55.2804L346.828 50.5267C346.468 48.8932 345.848 47.7007 344.965 46.9493C344.116 46.1652 342.874 45.7731 341.241 45.7731C339.215 45.7731 337.484 46.3449 336.046 47.4883C334.641 48.6318 333.857 50.4124 333.694 52.8301C333.661 53.0588 333.563 53.1731 333.4 53.1731C333.269 53.1731 333.22 53.0588 333.253 52.8301C333.416 50.9351 334.037 49.3506 335.115 48.0764C336.193 46.7696 337.5 45.8058 339.036 45.185C340.604 44.5643 342.188 44.2539 343.789 44.2539C346.566 44.2539 348.625 44.793 349.964 45.8711C351.336 46.9166 352.3 48.6482 352.855 51.0658L355.257 62.0433C355.485 62.9254 355.731 63.5952 355.992 64.0526C356.286 64.4773 356.662 64.6896 357.119 64.6896C357.707 64.6896 358.246 64.1832 358.736 63.1704C359.226 62.125 359.455 60.7528 359.422 59.0539ZM348.739 60.5241C348.804 60.2954 348.837 59.9033 348.837 59.3479L348.102 56.1135C346.534 55.7214 344.998 55.5254 343.495 55.5254C341.6 55.5254 340.244 55.8195 339.428 56.4075C338.644 56.9956 338.252 58.0574 338.252 59.593C338.252 61.1938 338.709 62.5497 339.624 63.6605C340.571 64.7713 341.911 65.3267 343.642 65.3267C346.713 65.3267 348.412 63.7258 348.739 60.5241Z" fill="white"></path><path d="M331.362 59.0042C331.362 58.8409 331.411 58.7592 331.509 58.7592C331.639 58.7592 331.705 58.8409 331.705 59.0042C331.705 61.4872 331.166 63.6108 330.087 65.3751C329.042 67.1393 327.67 68.0214 325.971 68.0214C324.697 68.0214 323.619 67.5804 322.736 66.6982C321.887 65.7835 321.446 64.4276 321.413 62.6307L321.364 62.4837C321.299 62.3857 321.217 62.353 321.119 62.3857C321.054 62.3857 320.989 62.451 320.923 62.5817C319.028 66.3062 316.366 68.1684 312.935 68.1684C311.236 68.1684 309.652 67.711 308.182 66.7963C306.744 65.8488 305.584 64.5256 304.702 62.8267C303.82 61.0952 303.379 59.1022 303.379 56.8479C303.379 54.5609 303.918 52.4537 304.996 50.5261C306.074 48.5985 307.479 47.0793 309.211 45.9685C310.975 44.825 312.804 44.2532 314.699 44.2532C317.346 44.2532 319.567 45.1354 321.364 46.8996L321.315 40.4307C321.315 39.1892 321.217 38.2744 321.021 37.6864C320.858 37.0656 320.629 36.6899 320.335 36.5592C320.041 36.4285 319.649 36.3959 319.159 36.4612H319.061C318.832 36.4612 318.734 36.3632 318.767 36.1672C322.459 35.2197 325.301 33.8638 327.294 32.0996H327.392C327.588 32.0996 327.67 32.2303 327.637 32.4917C327.408 33.8638 327.245 35.285 327.147 36.7552C327.082 38.2254 327.049 40.104 327.049 42.391V61.3565C327.049 63.5128 327.604 64.591 328.715 64.591C329.793 64.591 330.496 64.1009 330.823 63.1208C331.149 62.1406 331.329 60.7684 331.362 59.0042ZM316.611 65.032C318.146 65.032 319.306 64.4929 320.09 63.4148C320.874 62.304 321.315 60.6378 321.413 58.4161L321.364 55.4757C321.234 52.568 320.58 50.1177 319.404 48.1248C318.228 46.1318 316.529 45.1354 314.307 45.1354C310.256 45.1354 308.231 47.4223 308.231 51.9963C308.231 54.1199 308.623 56.1945 309.407 58.2201C310.223 60.2457 311.285 61.8956 312.592 63.1698C313.899 64.4113 315.238 65.032 316.611 65.032Z" fill="white"></path><path d="M272.072 58.2208C272.105 58.0901 272.17 58.0411 272.268 58.0738C272.366 58.0738 272.431 58.1391 272.464 58.2698C272.497 61.1122 273.183 63.3501 274.522 64.9837C275.895 66.6172 277.74 67.434 280.06 67.434C283.001 67.434 284.471 66.4212 284.471 64.3956C284.438 63.0888 283.866 61.9289 282.755 60.9161C281.645 59.8707 279.962 58.7108 277.708 57.4367C275.584 56.1625 273.983 55.019 272.905 54.0062C271.86 52.9934 271.337 51.8173 271.337 50.4777C271.337 49.3669 271.745 48.3378 272.562 47.3903C273.412 46.4102 274.571 45.6424 276.042 45.087C277.512 44.5316 279.145 44.2539 280.942 44.2539C283.066 44.2539 285.059 44.5643 286.921 45.185C288.783 45.7731 289.584 46.5899 289.322 47.6354L287.803 53.5161C287.77 53.6142 287.705 53.6632 287.607 53.6632C287.542 53.6632 287.509 53.5978 287.509 53.4671C287.28 47.8477 284.765 45.038 279.962 45.038C278.525 45.038 277.528 45.2667 276.973 45.7241C276.45 46.1488 276.189 46.7369 276.189 47.4883C276.189 48.4031 276.679 49.2689 277.659 50.0857C278.639 50.8698 280.354 51.9643 282.804 53.3691C284.961 54.578 286.676 55.8031 287.95 57.0446C289.224 58.2861 289.861 59.74 289.861 61.4062C289.861 62.6804 289.42 63.8402 288.538 64.8857C287.656 65.8985 286.415 66.6989 284.814 67.287C283.213 67.8751 281.4 68.1691 279.374 68.1691C277.839 68.1691 276.368 67.9894 274.963 67.63C273.559 67.3033 272.464 66.8459 271.68 66.2579C270.896 65.6371 270.569 64.9674 270.7 64.2486L272.072 58.2208Z" fill="white"></path><path d="M264.868 62.2879C264.868 63.6601 265.097 64.8036 265.554 65.7183C266.045 66.6331 266.796 67.1069 267.809 67.1395C267.972 67.1395 268.054 67.2049 268.054 67.3356C268.054 67.4336 267.972 67.4826 267.809 67.4826C267.188 67.4499 265.277 67.4336 262.075 67.4336C258.841 67.4336 256.913 67.4499 256.292 67.4826C256.096 67.4826 256.015 67.4172 256.047 67.2866C256.08 67.1559 256.211 67.0905 256.439 67.0905C258.302 67.0905 259.233 65.4896 259.233 62.2879V51.3104C259.233 50.0689 259.069 49.1705 258.743 48.6151C258.449 48.027 257.877 47.7329 257.027 47.7329C256.864 47.7329 256.586 47.7656 256.194 47.8309C256.064 47.8636 255.982 47.8309 255.949 47.7329C255.949 47.6023 255.998 47.5206 256.096 47.4879C257.632 47.1285 259.2 46.6548 260.801 46.0667C262.434 45.4786 263.758 44.8415 264.77 44.1555C264.868 44.0901 264.983 44.0574 265.113 44.0574C265.277 44.0574 265.358 44.1555 265.358 44.3515C265.162 46.1811 265.032 47.6023 264.966 48.6151C264.901 49.6279 264.868 50.804 264.868 52.1435V62.2879ZM261.144 39.4018C260.164 39.4018 259.363 39.1731 258.743 38.7157C258.155 38.2583 257.86 37.6866 257.86 37.0005C257.86 36.1511 258.269 35.4323 259.086 34.8442C259.902 34.2235 260.932 33.9131 262.173 33.9131C263.186 33.9131 263.986 34.1418 264.574 34.5992C265.162 35.0566 265.457 35.6447 265.457 36.3634C265.457 37.2129 265.048 37.9316 264.231 38.5197C263.415 39.1078 262.385 39.4018 261.144 39.4018Z" fill="white"></path><path d="M255.762 59.0539C255.762 58.8579 255.828 58.7598 255.958 58.7598C256.089 58.7272 256.154 58.8252 256.154 59.0539C256.154 60.9488 255.877 62.5824 255.321 63.9545C254.766 65.3267 254.031 66.3722 253.116 67.091C252.234 67.7771 251.286 68.1201 250.273 68.1201C248.15 68.1201 246.712 66.3885 245.961 62.9254L245.618 61.4552C244.997 63.5462 243.935 65.1797 242.432 66.3559C240.962 67.532 239.329 68.1201 237.532 68.1201C235.735 68.1201 234.216 67.7607 232.974 67.042C231.765 66.3232 230.851 65.3757 230.23 64.1996C229.642 63.0234 229.348 61.7656 229.348 60.4261C229.348 58.7272 230.181 57.3713 231.847 56.3585C233.513 55.3131 235.637 54.7903 238.218 54.7903C240.603 54.7903 242.612 54.9537 244.246 55.2804L243.168 50.5267C242.808 48.8932 242.187 47.7007 241.305 46.9493C240.456 46.1652 239.214 45.7731 237.581 45.7731C235.555 45.7731 233.824 46.3449 232.386 47.4883C230.981 48.6318 230.197 50.4124 230.034 52.8301C230.001 53.0588 229.903 53.1731 229.74 53.1731C229.609 53.1731 229.56 53.0588 229.593 52.8301C229.756 50.9351 230.377 49.3506 231.455 48.0764C232.533 46.7696 233.84 45.8058 235.375 45.185C236.944 44.5643 238.528 44.2539 240.129 44.2539C242.906 44.2539 244.964 44.793 246.304 45.8711C247.676 46.9166 248.64 48.6482 249.195 51.0658L251.597 62.0433C251.825 62.9254 252.07 63.5952 252.332 64.0526C252.626 64.4773 253.001 64.6896 253.459 64.6896C254.047 64.6896 254.586 64.1832 255.076 63.1704C255.566 62.125 255.795 60.7528 255.762 59.0539ZM245.079 60.5241C245.144 60.2954 245.177 59.9033 245.177 59.3479L244.442 56.1135C242.873 55.7214 241.338 55.5254 239.835 55.5254C237.94 55.5254 236.584 55.8195 235.768 56.4075C234.983 56.9956 234.591 58.0574 234.591 59.593C234.591 61.1938 235.049 62.5497 235.964 63.6605C236.911 64.7713 238.251 65.3267 239.982 65.3267C243.053 65.3267 244.752 63.7258 245.079 60.5241Z" fill="white"></path><path d="M227.442 59.0527C227.442 58.8566 227.508 58.7586 227.638 58.7586C227.769 58.7259 227.834 58.824 227.834 59.0527C227.834 60.9476 227.557 62.5811 227.001 63.9533C226.446 65.3255 225.711 66.371 224.796 67.0897C223.881 67.7758 222.917 68.1189 221.905 68.1189C219.846 68.1189 218.392 66.3873 217.543 62.9242L214.407 50.1335C214.113 48.8266 213.704 47.8955 213.181 47.3401C212.659 46.752 211.777 46.458 210.535 46.458C209.098 46.458 207.872 47.095 206.86 48.3692C205.847 49.6434 205.226 51.3586 204.997 53.5149V63.0712C204.997 64.5414 205.21 65.5705 205.634 66.1586C206.092 66.7467 206.86 67.0734 207.938 67.1387C208.101 67.1387 208.183 67.2041 208.183 67.3348C208.183 67.4328 208.101 67.4818 207.938 67.4818C207.186 67.4491 205.275 67.4328 202.204 67.4328C199.133 67.4328 197.205 67.4491 196.421 67.4818C196.258 67.4818 196.176 67.4164 196.176 67.2858C196.176 67.1551 196.274 67.0897 196.47 67.0897C197.222 67.0897 197.793 67.008 198.185 66.8447C198.577 66.6813 198.871 66.3056 199.068 65.7175C199.264 65.1295 199.362 64.231 199.362 63.0222V51.3096C199.362 50.0681 199.198 49.1697 198.871 48.6143C198.577 48.0262 198.006 47.7321 197.156 47.7321C196.993 47.7321 196.715 47.7648 196.323 47.8301C196.192 47.8628 196.111 47.8301 196.078 47.7321C196.078 47.6014 196.127 47.5198 196.225 47.4871C197.761 47.1277 199.329 46.654 200.93 46.0659C202.563 45.4778 203.887 44.8407 204.899 44.1547C204.997 44.0893 205.112 44.0566 205.242 44.0566C205.406 44.0566 205.487 44.1547 205.487 44.3507C205.193 47.2257 205.03 49.3003 204.997 50.5745C205.553 48.8103 206.582 47.3237 208.085 46.1149C209.62 44.8734 211.336 44.2527 213.23 44.2527C215.321 44.2527 216.89 44.7101 217.935 45.6248C218.981 46.5396 219.732 47.9445 220.189 49.8394L223.179 62.0911C223.603 63.8226 224.257 64.6884 225.139 64.6884C225.727 64.6884 226.266 64.182 226.756 63.1692C227.246 62.1237 227.475 60.7515 227.442 59.0527Z" fill="white"></path><path d="M180.28 68.168C178.025 68.168 175.983 67.6942 174.154 66.7468C172.357 65.7666 170.936 64.3944 169.89 62.6302C168.877 60.866 168.371 58.8567 168.371 56.6024C168.371 54.3154 168.959 52.2408 170.135 50.3786C171.311 48.4837 172.912 46.9971 174.938 45.919C176.996 44.8408 179.251 44.3018 181.701 44.3018C183.988 44.3018 186.046 44.7918 187.876 45.772C189.738 46.7194 191.192 48.0589 192.237 49.7905C193.283 51.5221 193.806 53.4987 193.806 55.7203C193.806 58.0073 193.201 60.1145 191.992 62.0421C190.816 63.9371 189.183 65.4399 187.092 66.5507C185.033 67.6289 182.763 68.168 180.28 68.168ZM182.975 66.9918C184.837 66.9918 186.291 66.4691 187.337 65.4236C188.415 64.3454 188.954 62.7772 188.954 60.719C188.954 58.726 188.431 56.5207 187.386 54.1031C186.373 51.6854 185.082 49.6435 183.514 47.9772C181.979 46.2784 180.476 45.4289 179.006 45.4289C177.176 45.4289 175.738 45.9516 174.693 46.9971C173.647 48.0426 173.125 49.6108 173.125 51.7017C173.125 53.662 173.631 55.8673 174.644 58.3176C175.657 60.7353 176.931 62.7936 178.466 64.4925C180.035 66.1587 181.538 66.9918 182.975 66.9918Z" fill="white"></path><path d="M162.933 62.2879C162.933 63.6601 163.162 64.8036 163.619 65.7183C164.109 66.6331 164.86 67.1069 165.873 67.1395C166.037 67.1395 166.118 67.2049 166.118 67.3356C166.118 67.4336 166.037 67.4826 165.873 67.4826C165.253 67.4499 163.341 67.4336 160.139 67.4336C156.905 67.4336 154.977 67.4499 154.357 67.4826C154.161 67.4826 154.079 67.4172 154.112 67.2866C154.144 67.1559 154.275 67.0905 154.504 67.0905C156.366 67.0905 157.297 65.4896 157.297 62.2879V51.3104C157.297 50.0689 157.134 49.1705 156.807 48.6151C156.513 48.027 155.941 47.7329 155.092 47.7329C154.928 47.7329 154.651 47.7656 154.259 47.8309C154.128 47.8636 154.046 47.8309 154.014 47.7329C154.014 47.6023 154.063 47.5206 154.161 47.4879C155.696 47.1285 157.264 46.6548 158.865 46.0667C160.499 45.4786 161.822 44.8415 162.835 44.1555C162.933 44.0901 163.047 44.0574 163.178 44.0574C163.341 44.0574 163.423 44.1555 163.423 44.3515C163.227 46.1811 163.096 47.6023 163.031 48.6151C162.966 49.6279 162.933 50.804 162.933 52.1435V62.2879ZM159.208 39.4018C158.228 39.4018 157.428 39.1731 156.807 38.7157C156.219 38.2583 155.925 37.6866 155.925 37.0005C155.925 36.1511 156.333 35.4323 157.15 34.8442C157.967 34.2235 158.996 33.9131 160.237 33.9131C161.25 33.9131 162.051 34.1418 162.639 34.5992C163.227 35.0566 163.521 35.6447 163.521 36.3634C163.521 37.2129 163.113 37.9316 162.296 38.5197C161.479 39.1078 160.45 39.4018 159.208 39.4018Z" fill="white"></path><path d="M133.619 58.2208C133.652 58.0901 133.717 58.0411 133.815 58.0738C133.913 58.0738 133.978 58.1391 134.011 58.2698C134.044 61.1122 134.73 63.3501 136.069 64.9837C137.441 66.6172 139.287 67.434 141.607 67.434C144.547 67.434 146.018 66.4212 146.018 64.3956C145.985 63.0888 145.413 61.9289 144.302 60.9161C143.192 59.8707 141.509 58.7108 139.255 57.4367C137.131 56.1625 135.53 55.019 134.452 54.0062C133.407 52.9934 132.884 51.8173 132.884 50.4777C132.884 49.3669 133.292 48.3378 134.109 47.3903C134.958 46.4102 136.118 45.6424 137.588 45.087C139.059 44.5316 140.692 44.2539 142.489 44.2539C144.613 44.2539 146.606 44.5643 148.468 45.185C150.33 45.7731 151.131 46.5899 150.869 47.6354L149.35 53.5161C149.317 53.6142 149.252 53.6632 149.154 53.6632C149.089 53.6632 149.056 53.5978 149.056 53.4671C148.827 47.8477 146.312 45.038 141.509 45.038C140.071 45.038 139.075 45.2667 138.52 45.7241C137.997 46.1488 137.735 46.7369 137.735 47.4883C137.735 48.4031 138.226 49.2689 139.206 50.0857C140.186 50.8698 141.901 51.9643 144.351 53.3691C146.508 54.578 148.223 55.8031 149.497 57.0446C150.771 58.2861 151.408 59.74 151.408 61.4062C151.408 62.6804 150.967 63.8402 150.085 64.8857C149.203 65.8985 147.962 66.6989 146.361 67.287C144.76 67.8751 142.947 68.1691 140.921 68.1691C139.385 68.1691 137.915 67.9894 136.51 67.63C135.105 67.3033 134.011 66.8459 133.227 66.2579C132.443 65.6371 132.116 64.9674 132.247 64.2486L133.619 58.2208Z" fill="white"></path><path d="M111.461 58.2208C111.493 58.0901 111.559 58.0411 111.657 58.0738C111.755 58.0738 111.82 58.1391 111.853 58.2698C111.885 61.1122 112.572 63.3501 113.911 64.9837C115.283 66.6172 117.129 67.434 119.449 67.434C122.389 67.434 123.859 66.4212 123.859 64.3956C123.827 63.0888 123.255 61.9289 122.144 60.9161C121.033 59.8707 119.351 58.7108 117.096 57.4367C114.973 56.1625 113.372 55.019 112.294 54.0062C111.248 52.9934 110.726 51.8173 110.726 50.4777C110.726 49.3669 111.134 48.3378 111.951 47.3903C112.8 46.4102 113.96 45.6424 115.43 45.087C116.9 44.5316 118.534 44.2539 120.331 44.2539C122.455 44.2539 124.447 44.5643 126.31 45.185C128.172 45.7731 128.972 46.5899 128.711 47.6354L127.192 53.5161C127.159 53.6142 127.094 53.6632 126.996 53.6632C126.93 53.6632 126.898 53.5978 126.898 53.4671C126.669 47.8477 124.153 45.038 119.351 45.038C117.913 45.038 116.917 45.2667 116.361 45.7241C115.839 46.1488 115.577 46.7369 115.577 47.4883C115.577 48.4031 116.067 49.2689 117.047 50.0857C118.028 50.8698 119.743 51.9643 122.193 53.3691C124.349 54.578 126.065 55.8031 127.339 57.0446C128.613 58.2861 129.25 59.74 129.25 61.4062C129.25 62.6804 128.809 63.8402 127.927 64.8857C127.045 65.8985 125.803 66.6989 124.202 67.287C122.602 67.8751 120.788 68.1691 118.763 68.1691C117.227 68.1691 115.757 67.9894 114.352 67.63C112.947 67.3033 111.853 66.8459 111.069 66.2579C110.285 65.6371 109.958 64.9674 110.089 64.2486L111.461 58.2208Z" fill="white"></path><path d="M104.259 62.2879C104.259 63.6601 104.488 64.8036 104.945 65.7183C105.435 66.6331 106.187 67.1069 107.199 67.1395C107.363 67.1395 107.444 67.2049 107.444 67.3356C107.444 67.4336 107.363 67.4826 107.199 67.4826C106.579 67.4499 104.667 67.4336 101.466 67.4336C98.2312 67.4336 96.3036 67.4499 95.6829 67.4826C95.4869 67.4826 95.4052 67.4172 95.4378 67.2866C95.4705 67.1559 95.6012 67.0905 95.8299 67.0905C97.6922 67.0905 98.6233 65.4896 98.6233 62.2879V51.3104C98.6233 50.0689 98.4599 49.1705 98.1332 48.6151C97.8392 48.027 97.2674 47.7329 96.418 47.7329C96.2546 47.7329 95.9769 47.7656 95.5849 47.8309C95.4542 47.8636 95.3725 47.8309 95.3398 47.7329C95.3398 47.6023 95.3888 47.5206 95.4869 47.4879C97.0224 47.1285 98.5906 46.6548 100.191 46.0667C101.825 45.4786 103.148 44.8415 104.161 44.1555C104.259 44.0901 104.373 44.0574 104.504 44.0574C104.667 44.0574 104.749 44.1555 104.749 44.3515C104.553 46.1811 104.422 47.6023 104.357 48.6151C104.292 49.6279 104.259 50.804 104.259 52.1435V62.2879ZM100.535 39.4018C99.5544 39.4018 98.754 39.1731 98.1332 38.7157C97.5451 38.2583 97.2511 37.6866 97.2511 37.0005C97.2511 36.1511 97.6595 35.4323 98.4763 34.8442C99.293 34.2235 100.322 33.9131 101.564 33.9131C102.576 33.9131 103.377 34.1418 103.965 34.5992C104.553 35.0566 104.847 35.6447 104.847 36.3634C104.847 37.2129 104.439 37.9316 103.622 38.5197C102.805 39.1078 101.776 39.4018 100.535 39.4018Z" fill="white"></path><path d="M79.2687 45.381C79.1053 45.381 79.0073 45.332 78.9746 45.234C78.9746 45.136 79.0563 45.0706 79.2196 45.038C80.5265 44.8746 81.4576 44.4989 82.013 43.9108C82.5684 43.3227 82.8461 42.2119 82.8461 40.5784C82.8461 38.8141 83.2055 37.3113 83.9243 36.0698C84.6757 34.7956 85.6395 33.8318 86.8157 33.1784C87.9918 32.525 89.217 32.1982 90.4912 32.1982C92.092 32.1982 93.4806 32.6883 94.6567 33.6684C94.7874 33.8318 94.8527 33.9788 94.8527 34.1095C94.8527 34.2729 94.6077 34.5832 94.1176 35.0406C93.6602 35.498 93.1865 35.9554 92.6965 36.4128C92.3044 36.7068 91.9777 36.9846 91.7163 37.2459C91.4223 37.54 91.1772 37.5563 90.9812 37.2949C90.2298 36.2821 89.462 35.5144 88.6779 34.9916C87.8938 34.4689 87.175 34.2075 86.5216 34.2075C85.9662 34.2075 85.5088 34.4035 85.1494 34.7956C84.8554 35.1223 84.7084 35.6614 84.7084 36.4128C84.7084 37.491 85.0024 38.8141 85.5905 40.3823C86.2112 41.9179 87.0444 43.3881 88.0898 44.7929C88.3839 44.9563 88.7596 45.038 89.217 45.038H94.2157C94.281 45.038 94.2973 45.1033 94.2647 45.234C94.232 45.332 94.134 45.381 93.9706 45.381H89.609C89.0536 45.381 88.6616 45.479 88.4329 45.675C88.2368 45.8384 88.1388 46.2305 88.1388 46.8512V62.2883C88.1388 64.0198 88.4656 65.245 89.119 65.9638C89.7724 66.6825 90.8015 67.0419 92.2064 67.0419C92.4351 67.0419 92.5494 67.1073 92.5494 67.2379C92.5494 67.3686 92.4351 67.434 92.2064 67.434C90.7035 67.3686 89.3967 67.3523 88.2859 67.385H82.4051C81.3596 67.385 80.3468 67.4176 79.3667 67.483C79.2033 67.483 79.1216 67.4176 79.1216 67.2869C79.1216 67.1563 79.2033 67.0909 79.3667 67.0909C80.4448 67.0909 81.2289 66.7315 81.719 66.0128C82.2417 65.2613 82.5031 64.0198 82.5031 62.2883V46.8022C82.5031 46.2795 82.4214 45.9201 82.2581 45.7241C82.0947 45.4954 81.8007 45.381 81.3759 45.381H79.2687Z" fill="white"></path><path d="M63.0727 68.168C60.8184 68.168 58.7764 67.6942 56.9468 66.7468C55.1499 65.7666 53.7287 64.3944 52.6833 62.6302C51.6705 60.866 51.1641 58.8567 51.1641 56.6024C51.1641 54.3154 51.7521 52.2408 52.9283 50.3786C54.1045 48.4837 55.7053 46.9971 57.7309 45.919C59.7892 44.8408 62.0435 44.3018 64.4939 44.3018C66.7808 44.3018 68.8391 44.7918 70.6687 45.772C72.5309 46.7194 73.9848 48.0589 75.0303 49.7905C76.0757 51.5221 76.5985 53.4987 76.5985 55.7203C76.5985 58.0073 75.9941 60.1145 74.7852 62.0421C73.6091 63.9371 71.9755 65.4399 69.8846 66.5507C67.8263 67.6289 65.5557 68.168 63.0727 68.168ZM65.768 66.9918C67.6303 66.9918 69.0841 66.4691 70.1296 65.4236C71.2077 64.3454 71.7468 62.7772 71.7468 60.719C71.7468 58.726 71.2241 56.5207 70.1786 54.1031C69.1658 51.6854 67.8753 49.6435 66.3071 47.9772C64.7716 46.2784 63.2687 45.4289 61.7985 45.4289C59.9689 45.4289 58.5314 45.9516 57.4859 46.9971C56.4404 48.0426 55.9177 49.6108 55.9177 51.7017C55.9177 53.662 56.4241 55.8673 57.4369 58.3176C58.4497 60.7353 59.7239 62.7936 61.2594 64.4925C62.8276 66.1587 64.3305 66.9918 65.768 66.9918Z" fill="white"></path><path d="M44.6365 44.2527C45.9106 44.2527 47.0541 44.563 48.0669 45.1838C49.1124 45.8045 49.6351 46.5723 49.6351 47.4871C49.6351 47.6178 49.6025 47.8138 49.5371 48.0752L47.1358 56.8474C47.1031 57.0434 47.0215 57.1251 46.8908 57.0924C46.7928 57.027 46.7601 56.9127 46.7928 56.7493C46.9561 55.7692 47.0378 54.9524 47.0378 54.299C47.0378 52.3387 46.5641 50.8849 45.6166 49.9374C44.6691 48.9573 43.5093 48.4672 42.1371 48.4672C40.5363 48.4672 39.4581 49.3003 38.9027 50.9666C38.3473 52.6001 38.0696 54.7401 38.0696 57.3864V63.0712C38.0696 64.5414 38.2819 65.5705 38.7067 66.1586C39.1641 66.7467 39.9318 67.0734 41.01 67.1387C41.1733 67.1387 41.255 67.2041 41.255 67.3348C41.255 67.4328 41.1733 67.4818 41.01 67.4818C40.2585 67.4491 38.3473 67.4328 35.2762 67.4328C32.2051 67.4328 30.2775 67.4491 29.4934 67.4818C29.3301 67.4818 29.2484 67.4164 29.2484 67.2857C29.2484 67.1551 29.3464 67.0897 29.5424 67.0897C30.2939 67.0897 30.8656 67.008 31.2577 66.8447C31.6497 66.6813 31.9438 66.3056 32.1398 65.7175C32.3358 65.1295 32.4338 64.231 32.4338 63.0222V51.3096C32.4338 50.0681 32.2705 49.1697 31.9438 48.6143C31.6497 48.0262 31.078 47.7321 30.2285 47.7321C30.0652 47.7321 29.7875 47.7648 29.3954 47.8301C29.2647 47.8628 29.1831 47.8301 29.1504 47.7321C29.1504 47.6014 29.1994 47.5198 29.2974 47.4871C30.8329 47.1277 32.4012 46.654 34.002 46.0659C35.6356 45.4778 36.9588 44.8407 37.9716 44.1547C38.0696 44.0893 38.1839 44.0566 38.3146 44.0566C38.478 44.0566 38.5597 44.1547 38.5597 44.3507C38.3636 46.1803 38.2329 47.6014 38.1676 48.6143C38.1023 49.6271 38.0696 50.8032 38.0696 52.1427V52.5348C38.4616 50.2478 39.1641 48.3039 40.1769 46.703C41.1897 45.0694 42.6762 44.2527 44.6365 44.2527Z" fill="white"></path><path d="M17.4953 44.253C19.1942 44.253 20.7461 44.7267 22.151 45.6741C23.5885 46.5889 24.732 47.9284 25.5814 49.6927C26.4635 51.4242 26.9046 53.4335 26.9046 55.7205C26.9046 57.8768 26.3982 59.9187 25.3854 61.8463C24.4053 63.7412 23.0494 65.2604 21.3179 66.4039C19.619 67.5474 17.7567 68.1192 15.7311 68.1192C14.4896 68.1192 13.4605 67.9558 12.6437 67.6291C11.8269 67.3024 11.0591 66.894 10.3404 66.4039C9.85032 66.0772 9.52361 65.9139 9.36025 65.9139C9.06621 65.9139 8.9192 66.1916 8.9192 66.747V72.1377C8.9192 73.8693 9.14789 75.0781 9.60529 75.7642C10.0954 76.4829 10.8305 76.875 11.8106 76.9403C11.9739 76.9403 12.0556 76.9893 12.0556 77.0874C12.0556 77.218 11.9739 77.2834 11.8106 77.2834C10.4384 77.218 8.7395 77.1854 6.7139 77.1854C4.13289 77.1854 2.0256 77.218 0.392052 77.2834C0.228697 77.2834 0.14702 77.218 0.14702 77.0874C0.14702 76.9567 0.228697 76.8913 0.392052 76.8913C1.37218 76.924 2.09095 76.581 2.54834 75.8622C3.03841 75.1434 3.28344 73.8856 3.28344 72.0887V51.3099C3.28344 50.0684 3.12008 49.1699 2.79337 48.6145C2.49933 48.0265 1.92759 47.7324 1.07814 47.7324C0.914789 47.7324 0.637085 47.7651 0.245033 47.8304C0.114349 47.8631 0.032671 47.8304 0 47.7324C0 47.6017 0.0490066 47.5201 0.14702 47.4874C1.68256 47.128 3.25077 46.6543 4.85165 46.0662C6.4852 45.4781 7.80838 44.841 8.82118 44.1549C8.98454 44.0569 9.11522 44.0243 9.21323 44.0569C9.34392 44.0896 9.39293 44.1876 9.36025 44.351C9.16423 46.0499 9.04988 47.4874 9.01721 48.6635C9.01721 49.0556 9.03354 49.4313 9.06621 49.7907C9.13156 50.1174 9.21323 50.2644 9.31125 50.2318C10.1934 48.4675 11.2878 47.03 12.5947 45.9192C13.9015 44.8084 15.5351 44.253 17.4953 44.253ZM16.1232 67.3841C18.2141 67.3841 19.717 66.796 20.6318 65.6198C21.5792 64.4437 22.053 62.7284 22.053 60.4741C22.053 58.2852 21.6772 56.1779 20.9258 54.1523C20.1744 52.1267 19.1616 50.4931 17.8874 49.2516C16.6459 48.0101 15.29 47.3894 13.8199 47.3894C12.3497 47.3894 11.1572 48.0101 10.2424 49.2516C9.36025 50.4931 8.9192 52.1593 8.9192 54.2503V57.5337C8.9192 60.3761 9.55628 62.7284 10.8305 64.5907C12.1373 66.4529 13.9015 67.3841 16.1232 67.3841Z" fill="white"></path></svg>